# xmcd
#
# Track frame offsets: 
#        150
#        25257
#        49017
#        70375
#
# Disc length: 1208 seconds
#
# Revision: 1
# Processed by: cddbd v1.5.2PL0 Copyright (c) Steve Scherf et al.
# Submitted via: ExactAudioCopy v1.0b3
#
DISCID=3004b604
DTITLE=De La Soul - Stakes Is High
DYEAR=1996
DGENRE=Hip-Hop
TTITLE0=Stakes Is High (Album Version)
TTITLE1=Stakes Is High (UK Full Length Remix)
TTITLE2=Stakes Is High (DJ Spinna Original Vocal Remix)
TTITLE3=The Bizness (Album Version)
EXTD=YEAR: 1996 ID3G: 7
EXTT0=
EXTT1=
EXTT2=
EXTT3=
PLAYORDER=
